# xmcd
#
# Track frame offsets:
#	150
#	52732
#	70290
#	98287
#	117515
#	139870
#	165427
# Disc length: 2473 seconds
# Revision: 6
# Processed by: cddbd v1.5.2PL0 Copyright (c) Steve Scherf et al.
#
# Submitted via: libkcddb 0.31
#
DISCID=5209a707
DTITLE=Jean-Michel Jarre - Oxygene 7-13
DYEAR=1997
DGENRE=New Age
TTITLE0=Oxygene (Part VII)
TTITLE1=Oxygene (Part VIII)
TTITLE2=Oxygene (Part IX)
TTITLE3=Oxygene (Part X)
TTITLE4=Oxygene (Part XI)
TTITLE5=Oxygene (Part XII)
TTITLE6=Oxygene (Part XIII)
EXTD=
EXTT0=
EXTT1=
EXTT2=
EXTT3=
EXTT4=
EXTT5=
EXTT6=
PLAYORDER=
